# xmcd
#
# Track frame offsets:
#	150
#	12867
#	26862
#	37770
#	53002
#	67762
#	79547
#	95237
#	107370
#	120202
#	131510
#	145025
#	158082
#	173287
#	188520
#
# Disc length: 2711 seconds
#
# Revision: 1
# Processed by: cddbd v1.5.1PL0 Copyright (c) Steve Scherf et al.
# Submitted via: EasyCDDAExtractor 7.0.6.1
#
DISCID=a20a950f
DTITLE=Billie Jo Spears - Billie Jo Spears The best of
DYEAR=1900
DGENRE=Country
TTITLE0=57 Chevrolet
TTITLE1=I Will Survive
TTITLE2=Misty Blue
TTITLE3=Blanket On The Ground
TTITLE4=I Don't ant To Talk About It
TTITLE5=I'm Not Easy
TTITLE6=Couldn't Love Have Picked A Better Place To Die
TTITLE7=I'm Gonna Love Lovin' You
TTITLE8=What Ive Got In Mind
TTITLE9=Wisdom Of A Fool
TTITLE10=Come Back When You Can Stay Forever
TTITLE11=Blue Orleans
TTITLE12=Something For Your Memory To Do
TTITLE13=I've Never Loved Anyone More
TTITLE14=Sing Me An Old Fashioned Song
EXTD=
EXTT0=
EXTT1=
EXTT2=
EXTT3=
EXTT4=
EXTT5=
EXTT6=
EXTT7=
EXTT8=
EXTT9=
EXTT10=
EXTT11=
EXTT12=
EXTT13=
EXTT14=
PLAYORDER=
